<svg width="150" height="150" viewBox="0 0 150 150" fill="none" xmlns="http://www.w3.org/2000/svg">
<g clip-path="url(#clip0_185_70)">
<path d="M0 75C0 73.3424 0.65848 71.7527 1.83058 70.5806C3.00269 69.4085 4.5924 68.75 6.25 68.75H43.75C45.4076 68.75 46.9973 69.4085 48.1694 70.5806C49.3415 71.7527 50 73.3424 50 75C50 76.6576 49.3415 78.2473 48.1694 79.4194C46.9973 80.5915 45.4076 81.25 43.75 81.25H6.25C4.5924 81.25 3.00269 80.5915 1.83058 79.4194C0.65848 78.2473 0 76.6576 0 75ZM130.719 69.4125C133.822 65.5058 135.945 60.9127 136.91 56.0174C137.875 51.1222 137.654 46.067 136.265 41.2748C134.876 36.4826 132.359 32.0926 128.926 28.4721C125.493 24.8515 121.243 22.1056 116.531 20.4641C111.82 18.8225 106.783 18.333 101.844 19.0365C96.9043 19.74 92.2049 21.616 88.1389 24.5077C84.0728 27.3994 80.7582 31.2226 78.4724 35.6576C76.1866 40.0927 74.9959 45.0106 75 50C75 51.6576 75.6585 53.2473 76.8306 54.4194C78.0027 55.5915 79.5924 56.25 81.25 56.25C82.9076 56.25 84.4973 55.5915 85.6694 54.4194C86.8415 53.2473 87.5 51.6576 87.5 50C87.5 46.2916 88.5997 42.6665 90.6599 39.5831C92.7202 36.4996 95.6486 34.0964 99.0747 32.6773C102.501 31.2581 106.271 30.8868 109.908 31.6103C113.545 32.3338 116.886 34.1195 119.508 36.7418C122.13 39.364 123.916 42.7049 124.64 46.3421C125.363 49.9792 124.992 53.7492 123.573 57.1753C122.154 60.6014 119.75 63.5298 116.667 65.5901C113.584 67.6503 109.958 68.75 106.25 68.75H68.75C67.0924 68.75 65.5027 69.4085 64.3306 70.5806C63.1585 71.7527 62.5 73.3424 62.5 75C62.5 76.6576 63.1585 78.2473 64.3306 79.4194C65.5027 80.5915 67.0924 81.25 68.75 81.25H125C128.315 81.25 131.495 82.567 133.839 84.9112C136.183 87.2554 137.5 90.4348 137.5 93.75C137.444 108.356 116.994 110.3 112.144 97.9188C111.592 96.3556 110.441 95.0758 108.946 94.3608C107.45 93.6458 105.732 93.5543 104.169 94.1063C102.606 94.6582 101.326 95.8086 100.611 97.3042C99.8958 98.7998 99.8043 100.518 100.356 102.081C110.094 127.594 149.7 122.369 150 93.75C149.992 88.1158 148.085 82.6488 144.586 78.2326C141.087 73.8163 136.202 70.7089 130.719 69.4125ZM68.75 100H6.25C4.5924 100 3.00269 100.658 1.83058 101.831C0.65848 103.003 0 104.592 0 106.25C0 107.908 0.65848 109.497 1.83058 110.669C3.00269 111.842 4.5924 112.5 6.25 112.5H68.75C72.0652 112.5 75.2446 113.817 77.5888 116.161C79.933 118.505 81.25 121.685 81.25 125C81.1937 139.606 60.7437 141.55 55.8937 129.169C55.6204 128.395 55.1974 127.682 54.6487 127.072C54.1 126.461 53.4364 125.965 52.6958 125.611C51.9553 125.257 51.1523 125.052 50.3326 125.008C49.513 124.965 48.6927 125.083 47.9187 125.356C47.1448 125.63 46.4322 126.053 45.8217 126.601C45.2113 127.15 44.7148 127.814 44.3608 128.554C44.0068 129.295 43.8021 130.098 43.7584 130.917C43.7147 131.737 43.8329 132.557 44.1063 133.331C53.8438 158.844 93.45 153.619 93.75 125C93.75 118.37 91.1161 112.011 86.4277 107.322C81.7393 102.634 75.3804 100 68.75 100ZM6.25 50H43.75C50.3804 50 56.7393 47.3661 61.4277 42.6777C66.1161 37.9893 68.75 31.6304 68.75 25C68.45 -3.63124 28.8312 -8.83749 19.1062 16.6688C18.5543 18.2319 18.6458 19.9503 19.3608 21.4459C20.0758 22.9415 21.3556 24.0918 22.9188 24.6438C24.4819 25.1957 26.2002 25.1042 27.6958 24.3892C29.1914 23.6742 30.3418 22.3944 30.8937 20.8313C35.75 8.44376 56.1937 10.3938 56.25 25C56.25 28.3152 54.933 31.4946 52.5888 33.8388C50.2446 36.183 47.0652 37.5 43.75 37.5H6.25C4.5924 37.5 3.00269 38.1585 1.83058 39.3306C0.65848 40.5027 0 42.0924 0 43.75C0 45.4076 0.65848 46.9973 1.83058 48.1694C3.00269 49.3415 4.5924 50 6.25 50Z" fill="black"/>
</g>
<defs>
<clipPath id="clip0_185_70">
<rect width="150" height="150" fill="white"/>
</clipPath>
</defs>
</svg>
