<svg width="150" height="150" viewBox="0 0 150 150" fill="none" xmlns="http://www.w3.org/2000/svg">
<g clip-path="url(#clip0_185_79)">
<path d="M145.444 58.8688C135.75 43.0812 113.7 16.5938 75 16.5938C36.3 16.5938 14.25 43.0812 4.55625 58.8688C1.55955 63.7157 -0.0277863 69.3015 -0.0277863 75C-0.0277863 80.6985 1.55955 86.2843 4.55625 91.1313C14.25 106.919 36.3 133.406 75 133.406C113.7 133.406 135.75 106.919 145.444 91.1313C148.44 86.2843 150.028 80.6985 150.028 75C150.028 69.3015 148.44 63.7157 145.444 58.8688ZM134.788 84.5875C126.463 98.125 107.619 120.906 75 120.906C42.3813 120.906 23.5375 98.125 15.2125 84.5875C13.4321 81.7065 12.4891 78.3867 12.4891 75C12.4891 71.6133 13.4321 68.2935 15.2125 65.4125C23.5375 51.875 42.3813 29.0938 75 29.0938C107.619 29.0938 126.463 51.85 134.788 65.4125C136.568 68.2935 137.511 71.6133 137.511 75C137.511 78.3867 136.568 81.7065 134.788 84.5875Z" fill="black"/>
<path d="M75 43.75C68.8193 43.75 62.7775 45.5828 57.6384 49.0166C52.4994 52.4504 48.494 57.331 46.1288 63.0411C43.7635 68.7513 43.1447 75.0347 44.3505 81.0966C45.5562 87.1585 48.5325 92.7267 52.9029 97.0971C57.2733 101.467 62.8415 104.444 68.9034 105.65C74.9653 106.855 81.2487 106.236 86.9589 103.871C92.669 101.506 97.5496 97.5006 100.983 92.3616C104.417 87.2225 106.25 81.1807 106.25 75C106.24 66.715 102.944 58.7722 97.0861 52.9139C91.2278 47.0555 83.285 43.7599 75 43.75ZM75 93.75C71.2916 93.75 67.6665 92.6503 64.5831 90.5901C61.4996 88.5298 59.0964 85.6014 57.6773 82.1753C56.2581 78.7492 55.8868 74.9792 56.6103 71.3421C57.3337 67.7049 59.1195 64.364 61.7417 61.7417C64.364 59.1195 67.7049 57.3337 71.3421 56.6103C74.9792 55.8868 78.7492 56.2581 82.1753 57.6773C85.6014 59.0964 88.5298 61.4996 90.5901 64.5831C92.6503 67.6665 93.75 71.2916 93.75 75C93.75 79.9728 91.7746 84.7419 88.2583 88.2583C84.7419 91.7746 79.9728 93.75 75 93.75Z" fill="black"/>
</g>
<defs>
<clipPath id="clip0_185_79">
<rect width="150" height="150" fill="white"/>
</clipPath>
</defs>
</svg>
