<svg width="150" height="150" viewBox="0 0 150 150" fill="none" xmlns="http://www.w3.org/2000/svg">
<path d="M126.136 62.6813H122.727V56.4726C122.727 51.5327 120.572 46.7951 116.736 43.302C112.9 39.8089 107.698 37.8466 102.273 37.8466H20.4545C15.0297 37.8466 9.82697 39.8089 5.991 43.302C2.15503 46.7951 0 51.5327 0 56.4726V118.56C0.0108263 126.79 3.60601 134.68 9.99695 140.5C16.3879 146.319 25.0528 149.593 34.0909 149.603H88.6364C96.4923 149.594 104.105 147.119 110.19 142.595C116.276 138.071 120.463 131.775 122.045 124.768C125.486 125.208 128.99 124.978 132.326 124.093C135.661 123.208 138.753 121.688 141.395 119.634C144.037 117.58 146.171 115.038 147.654 112.177C149.138 109.316 149.937 106.201 150 103.038V84.4118C150 78.6485 147.486 73.1213 143.011 69.0461C138.535 64.9708 132.465 62.6813 126.136 62.6813ZM88.6364 137.186H34.0909C28.666 137.186 23.4633 135.223 19.6274 131.73C15.7914 128.237 13.6364 123.5 13.6364 118.56V56.4726C13.6364 54.826 14.3547 53.2468 15.6334 52.0824C16.912 50.9181 18.6463 50.264 20.4545 50.264H102.273C104.081 50.264 105.815 50.9181 107.094 52.0824C108.373 53.2468 109.091 54.826 109.091 56.4726V118.56C109.091 123.5 106.936 128.237 103.1 131.73C99.2639 135.223 94.0612 137.186 88.6364 137.186ZM136.364 103.038C136.288 104.519 135.853 105.967 135.091 107.278C134.329 108.589 133.258 109.73 131.955 110.62C130.652 111.51 129.149 112.126 127.554 112.425C125.959 112.725 124.31 112.699 122.727 112.351V75.0987C124.31 74.7504 125.959 74.7249 127.554 75.0242C129.149 75.3235 130.652 75.9401 131.955 76.83C133.258 77.7199 134.329 78.861 135.091 80.1717C135.853 81.4824 136.288 82.9303 136.364 84.4118V103.038ZM54.5455 19.2205V6.80306C54.5455 5.15641 55.2638 3.5772 56.5425 2.41285C57.8211 1.24849 59.5553 0.59436 61.3636 0.59436C63.1719 0.59436 64.9062 1.24849 66.1848 2.41285C67.4635 3.5772 68.1818 5.15641 68.1818 6.80306V19.2205C68.1818 20.8671 67.4635 22.4463 66.1848 23.6107C64.9062 24.775 63.1719 25.4292 61.3636 25.4292C59.5553 25.4292 57.8211 24.775 56.5425 23.6107C55.2638 22.4463 54.5455 20.8671 54.5455 19.2205ZM81.8182 19.2205V6.80306C81.8182 5.15641 82.5365 3.5772 83.8152 2.41285C85.0938 1.24849 86.8281 0.59436 88.6364 0.59436C90.4447 0.59436 92.1789 1.24849 93.4576 2.41285C94.7362 3.5772 95.4545 5.15641 95.4545 6.80306V19.2205C95.4545 20.8671 94.7362 22.4463 93.4576 23.6107C92.1789 24.775 90.4447 25.4292 88.6364 25.4292C86.8281 25.4292 85.0938 24.775 83.8152 23.6107C82.5365 22.4463 81.8182 20.8671 81.8182 19.2205ZM27.2727 19.2205V6.80306C27.2727 5.15641 27.9911 3.5772 29.2697 2.41285C30.5484 1.24849 32.2826 0.59436 34.0909 0.59436C35.8992 0.59436 37.6334 1.24849 38.9121 2.41285C40.1908 3.5772 40.9091 5.15641 40.9091 6.80306V19.2205C40.9091 20.8671 40.1908 22.4463 38.9121 23.6107C37.6334 24.775 35.8992 25.4292 34.0909 25.4292C32.2826 25.4292 30.5484 24.775 29.2697 23.6107C27.9911 22.4463 27.2727 20.8671 27.2727 19.2205Z" fill="black"/>
</svg>
