<svg width="150" height="150" viewBox="0 0 150 150" fill="none" xmlns="http://www.w3.org/2000/svg">
<g clip-path="url(#clip0_185_91)">
<path d="M75 37.5C70.0555 37.5 65.222 38.9662 61.1108 41.7133C56.9995 44.4603 53.7952 48.3648 51.903 52.9329C50.0108 57.5011 49.5157 62.5277 50.4804 67.3773C51.445 72.2268 53.826 76.6814 57.3223 80.1777C60.8187 83.674 65.2732 86.055 70.1228 87.0196C74.9723 87.9843 79.999 87.4892 84.5671 85.597C89.1353 83.7048 93.0397 80.5005 95.7868 76.3893C98.5338 72.278 100 67.4445 100 62.5C100 55.8696 97.3661 49.5107 92.6777 44.8223C87.9893 40.1339 81.6304 37.5 75 37.5ZM75 75C72.5278 75 70.111 74.2669 68.0554 72.8934C65.9998 71.5199 64.3976 69.5676 63.4515 67.2835C62.5054 64.9995 62.2579 62.4861 62.7402 60.0614C63.2225 57.6366 64.413 55.4093 66.1612 53.6612C67.9093 51.913 70.1366 50.7225 72.5614 50.2402C74.9861 49.7579 77.4995 50.0054 79.7836 50.9515C82.0676 51.8976 84.0199 53.4998 85.3934 55.5554C86.7669 57.611 87.5 60.0277 87.5 62.5C87.5 65.8152 86.1831 68.9946 83.8388 71.3388C81.4946 73.683 78.3152 75 75 75Z" fill="black"/>
<path d="M75 150C69.7372 150.027 64.5444 148.793 59.8567 146.4C55.1689 144.008 51.1225 140.527 48.0563 136.25C24.2375 103.394 12.1562 78.6938 12.1562 62.8313C12.1563 46.1641 18.7773 30.1795 30.5628 18.3941C42.3482 6.60857 58.3328 -0.0124512 75 -0.0124512C91.6672 -0.0124512 107.652 6.60857 119.437 18.3941C131.223 30.1795 137.844 46.1641 137.844 62.8313C137.844 78.6938 125.763 103.394 101.944 136.25C98.8775 140.527 94.8311 144.008 90.1433 146.4C85.4556 148.793 80.2628 150.027 75 150ZM75 13.6313C61.9526 13.6462 49.4439 18.8358 40.2179 28.0617C30.992 37.2877 25.8024 49.7964 25.7875 62.8438C25.7875 75.4063 37.6187 98.6376 59.0938 128.256C60.9168 130.767 63.3086 132.811 66.0732 134.22C68.8379 135.63 71.8969 136.364 75 136.364C78.1031 136.364 81.1621 135.63 83.9268 134.22C86.6914 132.811 89.0832 130.767 90.9062 128.256C112.381 98.6376 124.213 75.4063 124.213 62.8438C124.198 49.7964 119.008 37.2877 109.782 28.0617C100.556 18.8358 88.0474 13.6462 75 13.6313Z" fill="black"/>
</g>
<defs>
<clipPath id="clip0_185_91">
<rect width="150" height="150" fill="white"/>
</clipPath>
</defs>
</svg>
