<svg width="150" height="150" viewBox="0 0 150 150" fill="none" xmlns="http://www.w3.org/2000/svg">
<g clip-path="url(#clip0_185_85)">
<path d="M93.75 24.0563C93.7697 25.2992 94.1523 26.5092 94.8507 27.5375C95.5492 28.5658 96.5331 29.3674 97.6812 29.8438C107.945 34.3599 116.625 41.8407 122.606 51.3257C128.588 60.8107 131.598 71.8669 131.25 83.075C131.008 97.9935 124.85 112.205 114.13 122.583C103.409 132.96 89.0059 138.655 74.0875 138.413C59.1691 138.171 44.9578 132.012 34.58 121.292C24.2022 110.572 18.508 96.1685 18.75 81.25C18.7644 70.3514 21.9447 59.6917 27.9041 50.5668C33.8635 41.4418 42.3454 34.2446 52.3187 29.85C53.4674 29.3708 54.4513 28.5668 55.1496 27.5365C55.8479 26.5062 56.2304 25.2945 56.25 24.05C56.2516 23.0263 56.0017 22.0179 55.5224 21.1134C55.043 20.2089 54.3488 19.436 53.5007 18.8626C52.6527 18.2892 51.6768 17.9329 50.6588 17.825C49.6408 17.7171 48.6119 17.8609 47.6625 18.2438C33.158 24.5322 21.2639 35.6272 13.9835 49.66C6.70316 63.6928 4.48143 79.8059 7.69256 95.2853C10.9037 110.765 19.3515 124.665 31.6129 134.644C43.8744 144.622 59.2004 150.071 75.0094 150.071C90.8183 150.071 106.144 144.622 118.406 134.644C130.667 124.665 139.115 110.765 142.326 95.2853C145.537 79.8059 143.316 63.6928 136.035 49.66C128.755 35.6272 116.861 24.5322 102.356 18.2438C101.405 17.8568 100.374 17.7099 99.3528 17.8162C98.3318 17.9225 97.3526 18.2786 96.5019 18.8532C95.6512 19.4278 94.9551 20.203 94.4751 21.1105C93.9951 22.018 93.7461 23.0297 93.75 24.0563Z" fill="black"/>
<path d="M81.25 6.25C81.25 2.79822 78.4518 0 75 0C71.5482 0 68.75 2.79822 68.75 6.25V43.75C68.75 47.2018 71.5482 50 75 50C78.4518 50 81.25 47.2018 81.25 43.75V6.25Z" fill="black"/>
</g>
<defs>
<clipPath id="clip0_185_85">
<rect width="150" height="150" fill="white"/>
</clipPath>
</defs>
</svg>
