<svg width="150" height="150" viewBox="0 0 150 150" fill="none" xmlns="http://www.w3.org/2000/svg">
<path fill-rule="evenodd" clip-rule="evenodd" d="M118.75 25.4292V37.8466C127.035 37.8564 134.978 41.1302 140.836 46.9499C146.694 52.7695 149.99 60.6598 150 68.89V99.9335C149.99 108.164 146.694 116.054 140.836 121.874C134.978 127.693 127.035 130.967 118.75 130.977C118.75 135.917 116.775 140.655 113.258 144.148C109.742 147.641 104.973 149.603 100 149.603H50C45.0272 149.603 40.2581 147.641 36.7417 144.148C33.2254 140.655 31.25 135.917 31.25 130.977C22.965 130.967 15.0222 127.693 9.16387 121.874C3.30551 116.054 0.00992411 108.164 0 99.9335V68.89C0.00992411 60.6598 3.30551 52.7695 9.16387 46.9499C15.0222 41.1302 22.965 37.8564 31.25 37.8466V25.4292C31.25 18.8426 33.8839 12.5257 38.5723 7.8683C43.2607 3.21088 49.6196 0.59436 56.25 0.59436H93.75C100.38 0.59436 106.739 3.21088 111.428 7.8683C116.116 12.5257 118.75 18.8426 118.75 25.4292ZM47.4112 16.6487C45.067 18.9774 43.75 22.1359 43.75 25.4292V37.8466H106.25V25.4292C106.25 22.1359 104.933 18.9774 102.589 16.6487C100.245 14.32 97.0652 13.0118 93.75 13.0118H56.25C52.9348 13.0118 49.7554 14.32 47.4112 16.6487ZM104.419 135.367C105.592 134.203 106.25 132.624 106.25 130.977V106.142C106.25 104.496 105.592 102.916 104.419 101.752C103.247 100.588 101.658 99.9335 100 99.9335H50C48.3424 99.9335 46.7527 100.588 45.5806 101.752C44.4085 102.916 43.75 104.496 43.75 106.142V130.977C43.75 132.624 44.4085 134.203 45.5806 135.367C46.7527 136.532 48.3424 137.186 50 137.186H100C101.658 137.186 103.247 136.532 104.419 135.367ZM132.008 113.104C135.525 109.611 137.5 104.873 137.5 99.9335V68.89C137.5 63.9501 135.525 59.2125 132.008 55.7194C128.492 52.2263 123.723 50.264 118.75 50.264H31.25C26.2772 50.264 21.5081 52.2263 17.9917 55.7194C14.4754 59.2125 12.5 63.9501 12.5 68.89V99.9335C12.5 104.873 14.4754 109.611 17.9917 113.104C21.5081 116.597 26.2772 118.56 31.25 118.56V106.142C31.25 101.202 33.2254 96.4647 36.7417 92.9716C40.2581 89.4785 45.0272 87.5161 50 87.5161H100C104.973 87.5161 109.742 89.4785 113.258 92.9716C116.775 96.4647 118.75 101.202 118.75 106.142V118.56C123.723 118.56 128.492 116.597 132.008 113.104ZM95.5806 64.4998C96.7527 63.3354 98.3424 62.6813 100 62.6813H112.5C114.158 62.6813 115.747 63.3354 116.919 64.4998C118.092 65.6641 118.75 67.2433 118.75 68.89C118.75 70.5366 118.092 72.1158 116.919 73.2802C115.747 74.4445 114.158 75.0987 112.5 75.0987H100C98.3424 75.0987 96.7527 74.4445 95.5806 73.2802C94.4085 72.1158 93.75 70.5366 93.75 68.89C93.75 67.2433 94.4085 65.6641 95.5806 64.4998Z" fill="black"/>
</svg>
